<?xml version="1.0" encoding="utf-8"?>
<!-- Generator: Adobe Illustrator 21.0.1, SVG Export Plug-In . SVG Version: 6.00 Build 0)  -->
<svg version="1.1" id="Layer_1" xmlns="http://www.w3.org/2000/svg" xmlns:xlink="http://www.w3.org/1999/xlink" x="0px" y="0px"
	 viewBox="0 0 304.8 61.6" style="enable-background:new 0 0 304.8 61.6;" xml:space="preserve">
<style type="text/css">
	.st0{fill:#FFFFFF;}
</style>
<polygon class="st0" points="23.9,4.8 17.2,15.5 10.5,4.8 4.5,4.8 4.5,30.2 10,30.2 10,13.7 17,24.4 17.2,24.4 24.3,13.6 24.3,30.2 
	29.9,30.2 29.9,4.8 "/>
<polygon class="st0" points="35.9,4.8 35.9,30.2 55.3,30.2 55.3,25.2 41.5,25.2 41.5,19.9 53.5,19.9 53.5,14.9 41.5,14.9 41.5,9.7 
	55.1,9.7 55.1,4.8 "/>
<polygon class="st0" points="60.4,4.8 60.4,30.2 79.7,30.2 79.7,25.2 65.9,25.2 65.9,19.9 77.9,19.9 77.9,14.9 65.9,14.9 65.9,9.7 
	79.6,9.7 79.6,4.8 "/>
<polygon class="st0" points="82.7,4.8 82.7,9.9 90.4,9.9 90.4,30.2 96,30.2 96,9.9 103.7,9.9 103.7,4.8 "/>
<rect x="107.4" y="4.8" class="st0" width="5.6" height="25.4"/>
<polygon class="st0" points="136.2,4.8 136.2,20.4 124.3,4.8 119.1,4.8 119.1,30.2 124.6,30.2 124.6,14 136.9,30.2 141.7,30.2 
	141.7,4.8 "/>
<g>
	<path class="st0" d="M146.4,17.5c0-7.2,5.6-13.1,13.3-13.1c4.6,0,7.3,1.2,10,3.5l-3.5,4.2c-2-1.6-3.7-2.6-6.6-2.6
		c-4.1,0-7.3,3.6-7.3,8c0,4.6,3.2,8.1,7.7,8.1c2,0,3.8-0.5,5.3-1.5v-3.6h-5.6v-4.8h11v11c-2.6,2.2-6.2,4-10.9,4
		C151.9,30.6,146.4,25.1,146.4,17.5"/>
	<path class="st0" d="M196.9,17.6c2.8,0,4.4-1.7,4.4-3.9c0-2.5-1.7-3.8-4.5-3.8h-4.3v7.8H196.9z M186.9,4.8h10.4
		c6.1,0,9.7,3.6,9.7,8.9c0,5.9-4.6,8.9-10.3,8.9h-4.2v7.6h-5.6V4.8z"/>
	<path class="st0" d="M231.1,17.5c0-4.4-3.2-8-7.7-8c-4.5,0-7.6,3.6-7.6,8c0,4.4,3.2,8,7.7,8C228,25.5,231.1,21.9,231.1,17.5
		 M209.9,17.5c0-7.2,5.7-13.1,13.5-13.1c7.8,0,13.5,5.8,13.5,13.1c0,7.2-5.7,13.1-13.5,13.1C215.5,30.6,209.9,24.8,209.9,17.5"/>
</g>
<rect x="241.8" y="4.8" class="st0" width="5.6" height="25.4"/>
<polygon class="st0" points="270.5,4.8 270.5,20.4 258.6,4.8 253.5,4.8 253.5,30.2 259,30.2 259,14 271.3,30.2 276,30.2 276,4.8 "/>
<polygon class="st0" points="279.6,4.8 279.6,9.9 287.4,9.9 287.4,30.2 293,30.2 293,9.9 293,4.8 "/>
<g>
	<path class="st0" d="M295.4,7.2c0,1.5,1.2,2.7,2.7,2.7c1.5,0,2.7-1.2,2.7-2.7c0-1.5-1.2-2.7-2.7-2.7C296.6,4.5,295.4,5.7,295.4,7.2
		"/>
</g>
<g>
	<path class="st0" d="M12,44.6c3.8,0,6.6,2.7,6.6,6.7c0,3.9-2.9,6.7-6.6,6.7c-3.8,0-6.6-2.7-6.6-6.7C5.4,47.5,8.2,44.6,12,44.6z
		 M12,56.5c3,0,5-2.3,5-5.2c0-3-2.2-5.2-5-5.2c-2.8,0-4.9,2.2-4.9,5.2C7.1,54.2,9.2,56.5,12,56.5z"/>
	<path class="st0" d="M27.3,44.8h7.3v1.5h-5.7v4.6H34v1.5h-5.2v5.4h-1.6V44.8z"/>
	<path class="st0" d="M43,44.8h7.3v1.5h-5.7v4.6h5.2v1.5h-5.2v5.4H43V44.8z"/>
	<path class="st0" d="M59.2,44.8h1.6v13h-1.6V44.8z"/>
	<path class="st0" d="M80.4,56.5c-0.9,0.9-2.5,1.4-4.1,1.4c-3.9,0-6.6-2.6-6.6-6.7c0-3.7,2.4-6.7,6.5-6.7c1.7,0,3,0.5,3.9,1.3
		L79.4,47c-0.9-0.6-1.9-1-3.2-1c-2.8,0-4.8,2.1-4.8,5.2c0,3.1,2.1,5.2,5.1,5.2c1.2,0,2.4-0.4,3.3-1.1L80.4,56.5z"/>
	<path class="st0" d="M88.7,44.8H96v1.5h-5.7v4.2h5.2v1.5h-5.2v4.3h5.9v1.5h-7.5V44.8z"/>
	<path class="st0" d="M118.9,44.7h1.4l5.6,13.1h-1.7l-1.7-3.9h-5.9l-1.6,3.9h-1.6L118.9,44.7z M117.2,52.3h4.7l-2.3-5.5L117.2,52.3z
		"/>
	<path class="st0" d="M133.1,48c0-1.9,1.4-3.4,3.9-3.4c1.5,0,2.8,0.5,3.6,1.4l-0.9,1.2c-0.7-0.7-1.5-1.1-2.6-1.1
		c-1.4,0-2.3,0.8-2.3,1.9c0,3.2,6.3,2,6.3,6.4c0,2.1-1.9,3.5-4.2,3.5c-1.6,0-3.4-0.7-4.1-1.9l0.9-1.1c0.8,1,2.1,1.5,3.2,1.5
		c1.4,0,2.5-0.7,2.5-2C139.5,51.3,133.1,52.3,133.1,48z"/>
	<path class="st0" d="M163.6,44.7h1.4l5.6,13.1h-1.7l-1.7-3.9h-5.9l-1.7,3.9H158L163.6,44.7z M161.9,52.3h4.7l-2.3-5.5L161.9,52.3z"
		/>
	<path class="st0" d="M188.1,57.8L180,47.6v10.2h-1.5v-13h1.3l8.1,10.2V44.8h1.5v13H188.1z"/>
	<path class="st0" d="M212.8,44.7h1.4l5.6,13.1h-1.7l-1.7-3.9h-5.9l-1.6,3.9h-1.6L212.8,44.7z M211.1,52.3h4.7l-2.3-5.5L211.1,52.3z
		"/>
	<path class="st0" d="M227.7,57.8v-13c0.7,0,3.1,0,3.5,0c3.5,0,4.6,1.8,4.6,3.9c0,2-1.4,3.3-2.8,3.7l4.3,5.5h-1.9l-4-5.2h-2.1v5.2
		H227.7z M229.3,46.3v4.8h1.9c1.5,0,2.9-0.9,2.9-2.5c0-1.3-0.7-2.4-3-2.4C230.7,46.2,229.9,46.2,229.3,46.3z"/>
	<path class="st0" d="M243.6,44.8h10.7v1.5h-4.5v11.5h-1.6V46.3h-4.5V44.8z"/>
</g>
</svg>
